{"title":"Need for Speed (2014) DVDRip XviD-MAX","uid":10536144,"size":1791813130,"categoryP":"video","categoryS":"movies","magnet":"?xt=urn:btih:c2e5210f4ab1f3fb0d035cb67e40660342a6e912&amp;dn=Need+for+Speed+%282014%29+DVDRip+XviD-MAX&amp;tr=udp%3A%2F%2Ftracker.openbittorrent.com%3A80&amp;tr=udp%3A%2F%2Fopen.demonii.com%3A1337&amp;tr=udp%3A%2F%2Ftracker.coppersurfer.tk%3A6969&amp;tr=udp%3A%2F%2Fexodus.desync.com%3A6969","seeders":12,"leechers":3,"uploader":"extremezone","files":-1,"time":1405170099,"description":" &lt;a href=&quot;http://i.imgbox.com/LSQnosyc.jpg&quot; rel=&quot;nofollow&quot; target=&quot;_NEW&quot;&gt;http://i.imgbox.com/LSQnosyc.jpg&lt;/a&gt;\n\nScreens:\n &lt;a href=&quot;\nhttp://i.imgbox.com/jbijZzfz.jpg&quot; rel=&quot;nofollow&quot; target=&quot;_NEW&quot;&gt;\nhttp://i.imgbox.com/jbijZzfz.jpg&lt;/a&gt; &lt;a href=&quot;\nhttp://i.imgbox.com/N2Ope2i1.jpg&quot; rel=&quot;nofollow&quot; target=&quot;_NEW&quot;&gt;\nhttp://i.imgbox.com/N2Ope2i1.jpg&lt;/a&gt; &lt;a href=&quot;\nhttp://i.imgbox.com/qkAuBVh5.jpg&quot; rel=&quot;nofollow&quot; target=&quot;_NEW&quot;&gt;\nhttp://i.imgbox.com/qkAuBVh5.jpg&lt;/a&gt; &lt;a href=&quot;\nhttp://i.imgbox.com/zhxymQzo.jpg&quot; rel=&quot;nofollow&quot; target=&quot;_NEW&quot;&gt;\nhttp://i.imgbox.com/zhxymQzo.jpg&lt;/a&gt;\n\nScreenCaps:\n &lt;a href=&quot;\nhttp://i.imgbox.com/yCRkNJTF.jpeg&quot; rel=&quot;nofollow&quot; target=&quot;_NEW&quot;&gt;\nhttp://i.imgbox.com/yCRkNJTF.jpeg&lt;/a&gt;\n\nNeed for Speed (2014) DVDRip XviD-MAX\nFormat                                   : AVI\nFormat/Info                              : Audio Video Interleave\nFormat profile                           : OpenDML\nFormat settings                          : rec\nFile size                                : 1.66 GiB\nDuration                                 : 2h 10mn\nOverall bit rate                         : 1 819 Kbps\nWriting application                      : VirtualDubMod 1.5.10.2 (build 2542/release)\nWriting library                          : VirtualDubMod build 2542/release\nOriginal source form                     : MAX TORRENTZ\nCopyright                                : SIGISMUNT\n\nVideo\nID                                       : 0\nFormat                                   : MPEG-4 Visual\nFormat profile                           : Advanced Simple@L5\nFormat settings, BVOP                    : 2\nFormat settings, QPel                    : No\nFormat settings, GMC                     : No warppoints\nFormat settings, Matrix                  : Default (H.263)\nCodec ID                                 : XVID\nCodec ID/Hint                            : XviD\nDuration                                 : 2h 10mn\nBit rate                                 : 1 366 Kbps\nWidth                                    : 720 pixels\nHeight                                   : 304 pixels\nDisplay aspect ratio                     : 2.35:1\nFrame rate                               : 23.976 fps\nColor space                              : YUV\nChroma subsampling                       : 4:2:0\nBit depth                                : 8 bits\nScan type                                : Progressive\nCompression mode                         : Lossy\nBits/(Pixel*Frame)                       : 0.260\nStream size                              : 1.25 GiB (75%)\nWriting library                          : XviD 1.2.1 (UTC 2008-12-04)\n\nAudio\nID                                       : 1\nFormat                                   : AC-3\nFormat/Info                              : Audio Coding 3\nMode extension                           : CM (complete main)\nFormat settings, Endianness              : Big\nCodec ID                                 : 2000\nDuration                                 : 2h 10mn\nBit rate mode                            : Constant\nBit rate                                 : 448 Kbps\nChannel(s)                               : 6 channels\nChannel positions                        : Front: L C R, Side: L R, LFE\nSampling rate                            : 48.0 KHz\nBit depth                                : 16 bits\nCompression mode                         : Lossy\nStream size                              : 419 MiB (25%)\nAlignment                                : Aligned on interleaves\nInterleave, duration                     : 64 ms (1.53 video frames)\nInterleave, preload duration             : 192 ms\n\nSource: DVD (perfect a/v/sync quality,sample included)\nThis torrent is not seedbox supported,please seed it to the MAX\n\nUploader Note: If you think image it's a little dark then VLC-Ctrl+E-Video Effects-\n-Image adjust-Brightness-Close, simple as 1,2,3 so no complaints about this please,thanks\n\nNote: If you have something to offer as early releases,seedboxes,\ncontact us on &lt;a href=&quot; http://torentz.3xforum.ro&quot; rel=&quot;nofollow&quot; target=&quot;_NEW&quot;&gt; http://torentz.3xforum.ro&lt;/a&gt; or \n\nNeed for Speed (2014) DVDRip XviD-MAX Torrent Free Download\n\nHow To Get Your MAXSPEED (uTorrent)\n\nTorrent Client - Preferences - Bandwidth - Number of connections - Set aprox. 500 for each\nTorrent Client - Preferences - BiTorrent - Protocol Encryption - Forced\nBandwidth Allocation - High (Set download/upload limit - Unlimited)\nStop Other Active Torrents - Start downloading and wait for connections.\nEnjoy and Seed for at least 1:1 ratio. Don't forget to say thanks/leave reviews.\nIf screens/Caps image host is dead googlesearch &quot;release name&quot;+&quot;screens&quot; or &quot;sample&quot;.\nGreets to all actual/future p2p/scene QUALITY groups and affiliate websites.\nDon't trust IMDb robot or bad ratings,always watch some trailers first.\nIgnore stupid comments/fake/mislabeled/no-DVDrips/CAM/TS/RAR uploads.\nPlease spread this release/torrent to your friends/forums/etc.\nIf you need translation subs visit some subtitles sites.\nReport if you see online streaming or other spam links.\nRecommended movie player VLC PLAYER.","torrent":{"xt":"urn:btih:c2e5210f4ab1f3fb0d035cb67e40660342a6e912","amp;dn":"Need+for+Speed+%282014%29+DVDRip+XviD-MAX","amp;tr":["udp%3A%2F%2Ftracker.openbittorrent.com%3A80","udp%3A%2F%2Fopen.demonii.com%3A1337","udp%3A%2F%2Ftracker.coppersurfer.tk%3A6969","udp%3A%2F%2Fexodus.desync.com%3A6969"],"infoHash":"c2e5210f4ab1f3fb0d035cb67e40660342a6e912","infoHashBuffer":{"type":"Buffer","data":[194,229,33,15,74,177,243,251,13,3,92,182,126,64,102,3,66,166,233,18]},"announce":[],"urlList":[]}}